<?xml version="1.0" encoding="utf-8"?>
<!-- Generator: Adobe Illustrator 22.1.0, SVG Export Plug-In . SVG Version: 6.00 Build 0)  -->
<svg version="1.1" id="Ñëîé_1" xmlns="http://www.w3.org/2000/svg" xmlns:xlink="http://www.w3.org/1999/xlink" x="0px" y="0px"
	 viewBox="0 0 800 364" style="enable-background:new 0 0 800 364;" xml:space="preserve">
<style type="text/css">
	.st0{fill:#DF2A61;}
	.st1{fill:#FFC3BF;}
	.st2{fill:#FFFFFF;}
	.st3{fill:#99CFA1;}
	.st4{fill:#75AF7C;}
	.st5{fill:#307FA5;}
	.st6{fill:#004F77;}
	.st7{fill:#52B8D1;}
	.st8{fill:#E6E6E6;}
	.st9{fill:#04324F;}
	.st10{fill:#A5DDEB;}
	.st11{fill:#934B4F;}
	.st12{fill:#FAB657;}
	.st13{fill:#542B2D;}
	.st14{fill:#F7A07F;}
	.st15{fill:#8E1C42;}
	.st16{fill:#CE7E70;}
	.st17{fill:#911B3F;}
</style>
<g>
	<path class="st0" d="M711,221c-28.9,26.8-155.3,28-289.1,29.4c-193.2,1.8-412.3,4-421.9,81.2c-0.1,0.7,0.4,1.4,1.1,1.4
		c0.1,0,0.1,0,0.2,0c0.6,0,1.2-0.5,1.3-1.1c9.3-75,227.2-77.2,419.4-79c140.1-1.4,261.2-2.6,290.8-30c0.5-0.5,0.6-1.3,0.1-1.8
		C712.4,220.5,711.6,220.5,711,221z"/>
	<path class="st1" d="M703.2,240.6c-62.7,26.5-393.5,13.2-533.6,30.9C56,285.9,23.7,324.7,38.6,342.3c17.4,20.6,277.5,15.5,300,4
		c26.4-13.5-70.8-57.1,1.3-56.3c434.7,4.8,458.7-32.8,459-43C799.7,223,733,228,703.2,240.6z"/>
	<path class="st0" d="M166.7,264.9c-82.5,8.5-127.3,24-149.6,51.6c-0.4,0.6-0.4,1.4,0.2,1.8c0.2,0.2,0.5,0.3,0.8,0.3
		c0.4,0,0.8-0.2,1-0.5C41,291,85.2,275.9,166.9,267.4c0.7-0.1,1.2-0.7,1.2-1.4C168,265.3,167.4,264.8,166.7,264.9z"/>
	<path class="st2" d="M223.6,282.1c-38.5,9.8-54.4,27-51.8,55.7c0.1,0.7,0.6,1.2,1.3,1.2h0.1c0.7-0.1,1.2-0.7,1.2-1.4
		c-2.5-27.2,12.9-43.5,49.9-53c0.7-0.2,1.1-0.9,0.9-1.6C225,282.4,224.3,281.9,223.6,282.1z"/>
	<path class="st2" d="M367.6,270.2c-39.3-1.2-113.8,5.3-114.5,5.4s-1.2,0.7-1.2,1.4c0.1,0.7,0.6,1.2,1.3,1.2h0.1
		c0.7-0.1,75.1-6.6,114.2-5.4c0.8,0.1,1.3-0.5,1.3-1.3C368.9,270.8,368.3,270.2,367.6,270.2z"/>
	<path class="st2" d="M554.9,270c-26.1,0.9-127.7,0.2-128.7,0.2l0,0c-0.7,0-1.3,0.6-1.3,1.3c0,0.7,0.6,1.3,1.3,1.3
		c0.6,0,40,0.3,76.1,0.3c22,0,42.8-0.1,52.7-0.4c0.7,0,1.3-0.6,1.2-1.3C556.3,270.6,555.6,270,554.9,270z"/>
	<path class="st2" d="M717.9,255.4c-13.2,3.2-73.1,13.7-99.2,14.7c-0.7,0-1.3,0.6-1.2,1.3c0,0.7,0.6,1.2,1.3,1.2l0,0
		c26.8-0.9,86-11.4,99.7-14.7c0.7-0.2,1.1-0.9,1-1.6C719.3,255.7,718.6,255.2,717.9,255.4z"/>
</g>
<g>
	<path class="st3" d="M571.8,250.5c-3.6,12.7,2.6,46.5,10.7,48.4c10.7,2.5,10.1-16.1,9.4-28.6C591.2,258,575.4,237.8,571.8,250.5z"
		/>
	<path class="st2" d="M575,249.7c-0.2,0.2-0.2,0.5,0,0.7c0.1,0.1,9.7,10.8,10.7,45.7c0,0.3,0.2,0.5,0.5,0.5l0,0
		c0.3,0,0.5-0.2,0.5-0.5c-1-35.4-10.6-45.9-11-46.3C575.5,249.5,575.2,249.5,575,249.7z"/>
	<path class="st4" d="M576,248.1c-0.2,0.6,5,6.9,7.5,14.6c2.2,6.7,4.8,24,4.3,32.7c-0.1,1.4,2.7,0.4,3.1-14
		c0.1-4.1-0.2-13.2-1.2-15.9C585.2,252.7,576.7,246,576,248.1z"/>
</g>
<g>
	<path class="st3" d="M590.4,281.8c-2.2,6.1-4.4,17.5,6.2,18.1c8,0.4,15.3-16,12.2-23.3C605.8,269.4,593.9,272.4,590.4,281.8z"/>
	<path class="st2" d="M605.2,275.3c-0.1,0-13.9,4.6-12.6,22.5c0,0.3,0.2,0.5,0.5,0.5l0,0c0.3,0,0.5-0.3,0.5-0.5
		c-1.2-17.1,11.4-21.3,11.9-21.5c0.3-0.1,0.4-0.4,0.3-0.6C605.8,275.4,605.5,275.2,605.2,275.3z"/>
	<path class="st4" d="M606.9,276.9c-2.3-0.2-6.1,3.1-7.6,4.7c-4.7,5-5.4,13.8-4.5,16.2c1.2,2.9,8.5,1,11.7-8.1
		S608.6,277,606.9,276.9z"/>
</g>
<path class="st5" d="M417.3,135.2l-16.1,1.6c0,0,6.9,9.5,15.5,10s7.8-3.2,7.6-5.8S423.2,137.1,417.3,135.2z"/>
<path class="st6" d="M434.3,207.2l-80.2-7c-0.3,0-0.5,0.2-0.6,0.5c0,0.3,0.2,0.5,0.5,0.6l80.2,7l0,0c0.3,0,0.5-0.2,0.5-0.5
	C434.8,207.5,434.6,207.2,434.3,207.2z"/>
<circle class="st5" cx="355" cy="214.8" r="12"/>
<path class="st5" d="M308.5,165.6c-0.7-0.3-1.5,0.1-1.8,0.9l-10.5,30.4c-0.3,0.7,0.1,1.5,0.9,1.8c0.2,0.1,0.3,0.1,0.5,0.1
	c0.6,0,1.1-0.4,1.3-1l10.5-30.4C309.7,166.7,309.3,165.9,308.5,165.6z"/>
<path class="st2" d="M344.9,179.3l-9.7,10.2c0,0-5.3,11.1-9.1,15.7c-3.7,4.6,2.6,8.1,8.9,3c6.3-5,8.6-10.4,16.3-14.7
	C359.1,189.2,344.9,179.3,344.9,179.3z"/>
<path class="st6" d="M352.7,190.1c-0.3,0-0.5,0.2-0.5,0.5c0,0-0.2,1.3-4.3,3.9c-2.1,1.3-4.8,4.3-7.8,7.5c-2.3,2.5-4.6,5.1-6.6,6.7
	c-1.9,1.6-4.4,1.6-5.6,1.1c-0.3-0.1-0.6,0-0.7,0.3s0,0.6,0.3,0.7c0.6,0.2,1.3,0.4,2.1,0.4c1.5,0,3.3-0.5,4.6-1.6
	c2-1.7,4.4-4.3,6.7-6.8c2.8-3,5.6-6.2,7.5-7.3c4.6-2.8,4.8-4.4,4.8-4.7C353.2,190.4,353,190.1,352.7,190.1z"/>
<path class="st6" d="M334.5,193.1c-4.3-1.4-8.4,0.6-9.6,2.6c-0.5,0.8-0.4,1.6,0.1,2.1c0.3,0.3,0.6,0.4,1.1,0.4c2.4,0,7-3,8.5-4.1
	c0.2-0.1,0.2-0.3,0.2-0.5C334.8,193.3,334.7,193.1,334.5,193.1z M325.7,197c-0.2-0.2-0.1-0.5,0.1-0.8c0.7-1.1,2.9-2.6,5.7-2.6
	c0.5,0,1,0,1.5,0.1C329.9,195.9,326.4,197.6,325.7,197z"/>
<path class="st6" d="M336.1,191.3c-0.6,0-1.5,0.2-1.8,2.3c0,0.1,0,0.3,0.1,0.3c0,0.1,0.1,0.2,0.2,0.2c0.5,0.3,2.1,1,3.1,1
	c0.3,0,0.5,0,0.6-0.1c0.2-0.1,0.4-0.4,0.4-0.7C338.8,193.3,337.4,191.4,336.1,191.3z M335.1,193.5c0.1-0.6,0.4-1.5,0.9-1.4
	c0.8,0.1,2,1.6,2,2.3C337.8,194.5,336.5,194.2,335.1,193.5z"/>
<path class="st6" d="M334.4,193.2c-0.1-0.1-0.3-0.1-0.4,0s-0.2,0.2-0.3,0.3c0,0-2.1,4.7-5.4,6.8c-0.2,0.1-0.3,0.5-0.2,0.7
	c0.1,0.2,0.3,0.3,0.4,0.3s0.2,0,0.3-0.1c3-1.8,4.9-5.2,5.6-6.6c0.5,0.5,1.1,1.6,0.7,3.9c0,0.3,0.1,0.6,0.4,0.6s0.6-0.1,0.6-0.4
	C336.8,194.3,334.5,193.3,334.4,193.2z"/>
<polygon class="st7" points="298.3,114.7 303.9,121.4 307.7,118.2 301,111.9 "/>
<path class="st8" d="M269.5,272.9c-1.5,5,23.5,2.8,23.8,0C293.5,270.1,270.8,268.7,269.5,272.9z"/>
<path class="st2" d="M381.1,256.1c0,0-10.7,6.1-16.4,7.7c-5.7,1.6-2.5,8.1,5.6,7.6s13-3.6,21.7-2.8c8.8,0.8,2.8-15.4,2.8-15.4
	L381.1,256.1z"/>
<path class="st9" d="M327.4,144.3c-2.5,7.8-3.6,21.5,7.4,46.2c1.5,3.3,12.7-2.1,12.4-8.3c-0.7-14.1-0.4-29.4-0.4-29.4l47.5-8.7
	l2.4-24.5l-29,2.9C367.7,122.4,329.2,138.7,327.4,144.3z"/>
<path class="st9" d="M304.2,221.9l-13.2-5.3c-1.3-0.5-2.9,0.1-3.4,1.5c-0.5,1.3,0.1,2.9,1.5,3.4l13.2,5.3c0.3,0.1,0.6,0.2,1,0.2
	c1,0,2-0.6,2.4-1.6C306.2,223.9,305.6,222.4,304.2,221.9z"/>
<path class="st10" d="M301,188.6c-1.2-0.4-2.5,0.2-2.9,1.4l-10,29.3c-0.4,1.2,0.2,2.5,1.4,2.9c0.2,0.1,0.5,0.1,0.7,0.1
	c1,0,1.8-0.6,2.2-1.6l10-29.3C302.9,190.3,302.2,189,301,188.6z"/>
<path class="st9" d="M315,170.7c-4-1.5-8.6,2.7-14.9,13.6c-5.2,9-10.8,21.5-15.7,35.1c-2,5.4-18.7,53-7.5,57c0.5,0.2,1,0.3,1.6,0.3
	c3.7,0,7.9-4.4,13.3-13.9c5.2-9,10.8-21.5,15.7-35.1c4.9-13.6,8.6-26.8,10.3-37.1C319.9,178.4,319,172.2,315,170.7z M302.6,226
	L302.6,226c-10.7,29.6-20.6,44-23.9,45.4c-1.6-3.2-0.1-20.6,10.6-50.2s20.6-44,23.9-45.4C314.7,179,313.3,196.4,302.6,226z"/>
<path class="st9" d="M429.9,161.2c-28.5,0-51.7,23.2-51.7,51.7s23.2,51.7,51.7,51.7s51.7-23.2,51.7-51.7
	C481.6,184.4,458.4,161.2,429.9,161.2z M429.9,260.1c-26.1,0-47.3-21.2-47.3-47.3s21.2-47.3,47.3-47.3s47.3,21.2,47.3,47.3
	S455.9,260.1,429.9,260.1z"/>
<path class="st10" d="M400.7,156.3c-0.4-0.7-1.2-1.1-2-1.1H320c-0.8,0-1.6,0.4-2,1.2c-0.4,0.7-0.4,1.6,0,2.3l35,57.3
	c0.4,0.7,1.2,1.1,2,1.1h76.8c0.8,0,1.6-0.4,2-1.1s0.4-1.6,0-2.3L400.7,156.3z M356.3,212.5l-32.2-52.7h73.3l30.4,52.7H356.3z"/>
<path class="st10" d="M408.2,141.6c-1-0.7-2.5-0.5-3.2,0.5l-51.8,71.3c-0.7,1-0.5,2.5,0.5,3.2c0.4,0.3,0.9,0.4,1.3,0.4
	c0.7,0,1.4-0.3,1.9-0.9l51.8-71.3C409.4,143.8,409.2,142.4,408.2,141.6z"/>
<path class="st10" d="M326.7,136.6c-1.2-0.4-2.5,0.2-2.9,1.4l-9.6,26c-0.4,1.2,0.2,2.5,1.4,2.9c0.3,0.1,0.5,0.1,0.8,0.1
	c0.9,0,1.8-0.6,2.2-1.5l9.6-26C328.5,138.4,327.9,137.1,326.7,136.6z"/>
<path class="st10" d="M358.3,151.4l-31.4-14.6l-29.3-16.6c-1.1-0.6-2.5-0.2-3.1,0.9c-0.6,1.1-0.2,2.5,0.9,3.1l29.3,16.6l31.7,14.7
	c0.3,0.1,0.6,0.2,1,0.2c0.9,0,1.7-0.5,2.1-1.3C360,153.3,359.5,151.9,358.3,151.4z"/>
<path class="st9" d="M392.7,129.7L394,141c0,0-14.3,106.9-13.1,113.1c1.3,6.2,13.8,5.2,15.4,1.6s6.8-52.3,8.4-59.8
	s15.1-44.7,15.1-58.7c0-8-5.8-19.8-5.8-19.8L392.7,129.7z"/>
<path class="st7" d="M364.4,123.1v7.1c0,0,0.9,4.5,20.3,5.4s33.8-4.9,35.1-6.6l-2.2-8.1L364.4,123.1z"/>
<path class="st7" d="M384.4,53.6c-9.6-5.4-32.1-4.4-41.9,1.4c-17.7,10.6-46.3,49.3-41.1,57.9c1.6,2.7,6.7,8.8,9.5,7.7
	c12.1-5,30.1-41,30.1-41c10.1,7.7,22.7,43.8,25.7,48.7c3.7,5.8,40.7,5.6,51.3-3.3C429.6,115.1,401.9,63.5,384.4,53.6z"/>
<path class="st7" d="M353.1,44.8c-6.4,8.3,1.8,12.8,5.3,13c5.4,0.3,18.8-0.2,21-5C384.1,42.1,361.7,33.8,353.1,44.8z"/>
<path class="st6" d="M395.8,84.7c-0.3-0.1-0.6,0-0.7,0.3c-1.1,2.4-4.7,5.5-4.7,5.6c-0.2,0.2-0.2,0.5,0,0.7c0.1,0.1,0.2,0.2,0.4,0.2
	c0.1,0,0.2,0,0.3-0.1c0.2-0.1,3.8-3.3,5-5.9C396.1,85.1,396,84.8,395.8,84.7z"/>
<path class="st6" d="M395.2,81.8c-0.2-0.1-0.6-0.1-0.7,0.2c-0.8,1.4-2.9,5.1-3.9,5.9c-0.2,0.2-0.2,0.5-0.1,0.7
	c0.1,0.1,0.2,0.2,0.4,0.2c0.1,0,0.2,0,0.3-0.1c1.3-1.1,4.1-6,4.2-6.2C395.5,82.3,395.5,82,395.2,81.8z"/>
<path class="st6" d="M373.2,57.1c-13.1,3.3-18.5,0.7-20.2-0.5c-1.1-0.8-1.4-1.5-1.4-1.8s-0.3-0.5-0.6-0.5c-0.3,0-0.5,0.3-0.5,0.6
	c0.1,0.8,0.8,1.8,1.8,2.6c1.4,1,4.2,2.3,9.4,2.3c3,0,6.9-0.4,11.7-1.7c0.3-0.1,0.4-0.4,0.4-0.6C373.7,57.2,373.4,57.1,373.2,57.1z"
	/>
<path class="st11" d="M373.5,26.9c-0.1-2,0.5-4.1,0.2-6.4C371,2.9,346.1,14,346.1,14l-2.9,9.9c6.2,12.8,7.9,19.7,16.3,22.8
	c4.8,1.7,14.7,0.7,15-5.3c0.2-3.2,1-5.6,0.4-10.8C374.5,28.1,373.6,27.6,373.5,26.9z"/>
<path class="st12" d="M373.7,22L373.7,22v0.8C373.9,20.6,373.7,22,373.7,22z"/>
<path class="st12" d="M377.8,9.6l-7-0.6l3.7-3.4l-10,1.6l1.1-2.5c0,0-4.1,0.4-10.5,2.5s-11,3.3-11,10c0,0-10.2,10,9.9,25.9
	c0,0-2.2-2.8-3.8-7.7c-0.4-1.3-0.8-8.1,1.7-8.6c8-1.4,19.7-14.3,22-4.8v-7.7L377.8,9.6z"/>
<path class="st11" d="M369.9,42.7l-19.5-8.4c-0.5-0.4-1.6-3-1.6-3s-2-0.4-2.7-0.4s-1.1,1.9-0.7,2.9s2.6,3.7,3.7,4.2s1.9,0.3,1.9,0.3
	l1,3.3l2.9,7c0,0,6.3,2.9,12.9,0.6C374.5,47.1,369.9,42.7,369.9,42.7z"/>
<path class="st6" d="M416.9,125.2c-0.1,0.1-7.2,6.6-33.4,6.6c-0.1,0-0.2,0-0.3,0l0,0c-0.3,0-0.5,0.2-0.5,0.5s0.2,0.5,0.5,0.5
	c0.1,0,0.2,0,0.4,0c26.7,0,33.8-6.6,34.1-6.9c0.2-0.2,0.2-0.5,0-0.7C417.4,125,417.1,125,416.9,125.2z"/>
<path class="st13" d="M372.5,23.8c-0.7,0-3.2,0-3.9,0.7c-0.9,0.9-0.8,3.5,0,4.6c0.2,0.3,0.4,0.6,0.7,0.9c0.4,0.5,0.7,0.9,0.9,1.4
	c0.3,0.8-0.8,2.3-1.6,3.1c-0.2,0.2-0.2,0.5,0,0.7c0.1,0.1,0.2,0.1,0.4,0.1c0.1,0,0.3-0.1,0.4-0.2c0.2-0.2,2.3-2.5,1.8-4.1
	c-0.2-0.7-0.6-1.2-1.1-1.8c-0.2-0.3-0.4-0.5-0.6-0.8c-0.6-0.9-0.6-2.9-0.1-3.3c0.3-0.3,1.9-0.4,3.2-0.4c0.3,0,0.5-0.2,0.5-0.5
	C373,24.1,372.8,23.8,372.5,23.8z"/>
<path class="st13" d="M365.4,24.8c-3.4-0.2-5.5,1.3-7.4,2.7c-0.6,0.5-1.2,0.9-1.9,1.2c-0.3,0.1-0.3,0.5-0.2,0.7
	c0.1,0.2,0.3,0.3,0.5,0.3c0.1,0,0.2,0,0.2-0.1c0.7-0.4,1.3-0.8,2-1.3c1.8-1.3,3.7-2.6,6.7-2.5c0.3,0,0.5-0.2,0.5-0.5
	C365.9,25.1,365.6,24.8,365.4,24.8z"/>
<path class="st13" d="M369.1,39.3c0,0-3,1-5.4-1.1c-0.2-0.2-0.5-0.2-0.7,0.1c-0.2,0.2-0.2,0.5,0.1,0.7c1.5,1.3,3.1,1.6,4.4,1.6
	c1.2,0,2-0.3,2.1-0.3c0.3-0.1,0.4-0.4,0.3-0.7C369.6,39.4,369.3,39.3,369.1,39.3z"/>
<path class="st9" d="M301.7,122.2l-19-10.6c-1.3-0.7-2.9-0.2-3.6,1c-0.7,1.3-0.2,2.9,1,3.6l19,10.6c0.4,0.2,0.8,0.3,1.3,0.3
	c0.9,0,1.8-0.5,2.3-1.4C303.5,124.5,303,122.9,301.7,122.2z"/>
<path class="st9" d="M373.3,157.9l-18.1-8.4c-1.3-0.6-2.9,0-3.5,1.3s0,2.9,1.3,3.5l18.1,8.4c0.4,0.2,0.7,0.2,1.1,0.2
	c1,0,2-0.6,2.4-1.5C375.2,160.1,374.6,158.5,373.3,157.9z"/>
<path class="st6" d="M394.5,264.5c0,0-0.9,1-5.7,0.7c-2.4-0.1-6.4,0.8-10.7,1.8c-3.3,0.8-6.7,1.5-9.3,1.8c-2.4,0.2-4.5-1.2-5.3-2.3
	c-0.2-0.2-0.5-0.3-0.7-0.1c-0.2,0.2-0.3,0.5-0.1,0.7c0.9,1.4,3.2,2.8,5.6,2.8c0.2,0,0.4,0,0.6,0c2.6-0.3,6.1-1,9.4-1.8
	c4-0.9,8.1-1.9,10.4-1.7c5.4,0.3,6.5-0.9,6.6-1.1c0.2-0.2,0.1-0.6-0.1-0.7C395,264.3,394.7,264.3,394.5,264.5z"/>
<path class="st6" d="M369.1,255.3c-0.8,0.4-1.3,1-1.1,1.8c0.5,2.2,7.8,2.4,10,2.4c0.2,0,0.4-0.1,0.5-0.3c0.1-0.2,0.1-0.4,0-0.5
	C375.7,255,371.2,254.3,369.1,255.3z M369,256.8c-0.1-0.3,0.3-0.5,0.5-0.6c0.4-0.2,1-0.3,1.7-0.3c1.7,0,3.9,0.7,5.7,2.5
	C373,258.3,369.1,257.7,369,256.8z"/>
<path class="st6" d="M378,258.8c-0.2,0.1-0.3,0.3-0.2,0.5c0,0.2,0,0.3,0.1,0.5c0.5,0.5,2.8,2.8,4.5,2.8c0.3,0,0.7-0.1,0.9-0.3
	c0.9-0.7,1-2.4,0.2-3.5C383.1,258.2,381.6,256.6,378,258.8z M382.7,261.5c-0.6,0.5-2.4-0.8-3.7-2.1c1.7-0.9,3-0.9,3.7,0
	C383.2,260.1,383.1,261.1,382.7,261.5z"/>
<path class="st6" d="M377.4,258.6c-0.5,0.6-2.2,2.1-3.4,2.1c0,0,0,0-0.1,0c-0.3,0-0.5,0.2-0.5,0.5s0.2,0.5,0.5,0.5h0.1
	c1.9,0,4-2.2,4.2-2.4c0.2-0.2,0.2-0.5,0-0.7C377.9,258.4,377.6,258.4,377.4,258.6z"/>
<path class="st11" d="M298.7,114.8c0,0-9.1-3.4-11.2-0.4c-1.2,1.8-2.8,6.7-0.4,6.4c0,0,0.2,2.3,2.3,2.1c0,0,0.7,2,2.5,1.2
	c0,0,0.3,1.8,2.3,1c1.2-0.5,0.7-4.2,2.7-5l3.9,2c0,0,1.5,0.5,3.4-1.5C306.3,118.8,298.7,114.8,298.7,114.8z"/>
<path class="st11" d="M361.3,148.7c0,0-6.1,0.9-6.3,4.4c-0.1,2.1,2.7,7.7,4.4,6.6c0,0,1.2,2,2.7,1c0,0,1.5,1.5,2.5,0.1
	c0,0,1,1.5,2.2,0c0.7-0.9-1.3-3.5-0.2-4.9c0,0,2.2-1,2.6-3.6C369.6,149.8,361.3,148.7,361.3,148.7z"/>
<path class="st7" d="M374.4,67.4c-6.3,22-16,59-15.5,76.2c0.1,3.6,12.1,7.6,14.3,4.8c7.5-9.2,16-60.1,18-79.8
	C392.2,59.1,378.4,53.3,374.4,67.4z"/>
<path class="st2" d="M373.5,70.5c-0.3-0.1-0.6,0.1-0.7,0.3c-0.1,0.3-9,28.5-12,47.1c0,0.3,0.1,0.6,0.4,0.6h0.1
	c0.3,0,0.5-0.2,0.5-0.4c3-18.5,11.9-46.6,12-46.9C374,70.9,373.8,70.6,373.5,70.5z"/>
<path class="st7" d="M360.7,149c0,0,3.3,3.1,8.5,3.3l2.3-4.7l-9.4-2.1L360.7,149z"/>
<path class="st11" d="M297.5,124.1c-1.2,1.4-1.1,2.9,0.4,3.2s5.9-4.2,6.7-7.1l-3.8,0.7C300.8,120.9,298.8,122.7,297.5,124.1z"/>
<path class="st5" d="M321.9,87.1c-0.2-0.2-0.5-0.3-0.7-0.1s-0.3,0.5-0.1,0.7l3.8,5.3c0.1,0.1,0.3,0.2,0.4,0.2s0.2,0,0.3-0.1
	c0.2-0.2,0.3-0.5,0.1-0.7L321.9,87.1z"/>
<path class="st5" d="M322.8,84.2c-0.2-0.2-0.6-0.2-0.7,0.1c-0.2,0.2-0.2,0.6,0.1,0.7l6.8,5.7c0.1,0.1,0.2,0.1,0.3,0.1
	c0.2,0,0.3-0.1,0.4-0.2c0.2-0.2,0.2-0.6-0.1-0.7L322.8,84.2z"/>
<path class="st5" d="M320.9,171.2c-0.7-0.3-1.5,0.1-1.8,0.9l-10.5,30.4c-0.3,0.7,0.1,1.5,0.9,1.8c0.2,0.1,0.3,0.1,0.5,0.1
	c0.6,0,1.1-0.4,1.3-1l10.5-30.4C322,172.2,321.6,171.4,320.9,171.2z"/>
<path class="st10" d="M323.2,165.7l-12.3-4.9c-0.6-0.2-1.2-0.2-1.8,0c-0.6,0.3-1,0.7-1.2,1.3l-1.9,5.2c-0.4,1.2,0.2,2.5,1.4,2.9
	c1.2,0.4,2.5-0.2,2.9-1.4l1.1-3l8.1,3.2l-0.9,2.7c-0.4,1.2,0.2,2.5,1.4,2.9c0.2,0.1,0.5,0.1,0.7,0.1c1,0,1.8-0.6,2.2-1.6l1.6-4.7
	C324.9,167.4,324.3,166.1,323.2,165.7z"/>
<path class="st10" d="M313.2,193.5c-1.2-0.4-2.5,0.2-2.9,1.4l-10,29.6c-0.4,1.2,0.2,2.5,1.4,2.9c0.2,0.1,0.5,0.1,0.7,0.1
	c1,0,1.9-0.6,2.2-1.6l10-29.6C315,195.2,314.4,193.9,313.2,193.5z"/>
<path class="st6" d="M307.6,185.7c-0.3-0.1-0.6,0.1-0.6,0.3l-9.2,30.6c-0.1,0.3,0.1,0.6,0.3,0.6h0.1c0.2,0,0.4-0.1,0.5-0.4l9.2-30.6
	C308.1,186,307.9,185.7,307.6,185.7z"/>
<path class="st6" d="M294.9,225.7l-10.7,15.7c-0.2,0.2-0.1,0.6,0.1,0.7c0.1,0.1,0.2,0.1,0.3,0.1c0.2,0,0.3-0.1,0.4-0.2l10.8-15.7
	c0.2-0.2,0.1-0.6-0.1-0.7C295.3,225.4,295,225.4,294.9,225.7z"/>
<path class="st6" d="M296.7,227L296.7,227c-0.3,0-0.5,0.2-0.5,0.5l-0.1,9.6c0,0.3,0.2,0.5,0.5,0.5l0,0c0.3,0,0.5-0.2,0.5-0.5
	l0.1-9.6C297.2,227.2,296.9,227,296.7,227z"/>
<path class="st6" d="M418.8,171.5c-0.1-0.3-0.4-0.4-0.7-0.3c-0.3,0.1-0.4,0.4-0.3,0.7l11.8,29.7c0.1,0.2,0.3,0.3,0.5,0.3
	c0.1,0,0.1,0,0.2,0c0.3-0.1,0.4-0.4,0.3-0.7L418.8,171.5z"/>
<path class="st6" d="M426.4,169.4c-0.1-0.3-0.3-0.5-0.6-0.4c-0.3,0.1-0.5,0.3-0.4,0.6l6.6,31.6c0.1,0.2,0.3,0.4,0.5,0.4h0.1
	c0.3-0.1,0.5-0.3,0.4-0.6L426.4,169.4z"/>
<circle class="st5" cx="431.8" cy="214.8" r="6.4"/>
<path class="st6" d="M352.4,227.5c-2.2,0-5.1-1.9-5.1-2c-0.1-0.1-0.3-0.1-0.4-0.1s-0.3,0.1-0.3,0.3l-0.8,1.5l-1.1-0.8l1.3-1
	c0.1-0.1,0.2-0.3,0.2-0.4c0-0.2-0.1-0.3-0.2-0.4c-2.9-2.1-3.3-6-3.3-6.1c0-0.3-0.3-0.5-0.6-0.5c-0.3,0-0.5,0.3-0.5,0.6
	c0,0.2,0.4,4,3.2,6.4l-1.3,1c-0.1,0.1-0.2,0.3-0.2,0.4c0,0.2,0.1,0.3,0.2,0.4l2.1,1.6c0.1,0.1,0.2,0.1,0.3,0.1h0.1
	c0.2,0,0.3-0.1,0.3-0.3l0.8-1.5c1,0.6,3.2,1.8,5.2,1.8c0.3,0,0.5-0.2,0.5-0.5C353,227.7,352.7,227.5,352.4,227.5z"/>
<path class="st6" d="M439.9,214.5c0-0.3-0.3-0.5-0.6-0.5c-0.3,0-0.5,0.3-0.5,0.6c0.2,1.6-1,4.1-1,4.1c-0.1,0.3,0,0.6,0.2,0.7
	l0.5,0.3l-0.4,0.6l-0.4-0.5c-0.1-0.1-0.3-0.2-0.4-0.2c-0.2,0-0.3,0.1-0.4,0.2c-1.5,2.1-4.6,2.1-4.6,2.1c-0.3,0-0.5,0.2-0.5,0.5
	s0.2,0.5,0.5,0.5c0,0,0,0,0.1,0c0.5,0,3.2-0.1,5-2l0.4,0.5c0.1,0.1,0.3,0.2,0.4,0.2c0.2,0,0.3-0.1,0.4-0.2l1.2-1.6
	c0.1-0.1,0.1-0.3,0.1-0.4c0-0.2-0.1-0.3-0.3-0.3l-0.6-0.3C439.3,217.8,440,215.9,439.9,214.5z"/>
<path class="st11" d="M352.2,148.9c-0.3,0.5-0.1,1.2-0.1,1.2c0.9,1.3,5.1,1.3,5.1,1.3l3.5-2.4C360.7,149,352.7,148,352.2,148.9z"/>
<path class="st14" d="M430.8,101c-0.6-0.2-1.8,0.2-1.8,0.2s0.8-1.1,0.2-1.3c-0.5-0.2-2.2,0.9-2.3,1l0.6,0.4l3.9,1.8
	C431.4,102.9,431.3,101.1,430.8,101z"/>
<path class="st14" d="M427.6,102.3h-2.3c0,0-1.4,2.3-0.8,3.7s9.6,7.3,9.6,7.3l3.6-3.6l-2.9-3.8L427.6,102.3z"/>
<path class="st9" d="M439.4,106.2l-14.3-6.7c-0.1-0.1-0.2-0.1-0.4,0l-4.8,2.5c-0.1,0.1-0.2,0.2-0.2,0.3v0.1c0,0.2,0.1,0.3,0.2,0.4
	l14.5,6.8c0.1,0.1,0.3,0.1,0.4,0l4.5-2.4c0.1-0.1,0.2-0.2,0.2-0.3v-0.5C439.6,106.4,439.5,106.3,439.4,106.2z"/>
<path class="st6" d="M437.2,105.6l-11.1-5.2c-0.1,0-0.2,0-0.3,0l-4,2.1c-0.1,0.1-0.1,0.2,0,0.3L433,108c0.1,0,0.2,0,0.3,0l3.9-2
	C437.5,105.9,437.5,105.7,437.2,105.6z"/>
<path class="st14" d="M432.5,109.5c-2.4-1.7-2.1-4.2-1.7-4.9c0.2-0.4,0.3-1.9-0.5-1.8c-0.8,0-2.3,3.1-1.9,4.7
	C429.1,109.9,434.2,110.6,432.5,109.5z"/>
<path class="st9" d="M559.6,249c-1.6-0.5-2-3.2-3.6-4.1s-6.5-0.4-7.4-1c-0.9-0.7-2.1-2.1-3.5-3.6c-1.4-1.6-1.8-1-1.8,1.1
	s1,7-0.6,9.8l-2.1,2.3c-21.9,17.3-10,36.1-10.5,36.3c-0.5,0.3-3.7,2.3-3.4,3.7c0.3,1.4,3.9-0.2,6.4-1.4c2.5-1.1,6.7,0.9,9.7,0.9
	c3,0.1,8.6,3.9,10.4,4.1c1.8,0.2,2.4-1.5,1.8-2.7c-0.6-1.2-7-1.6-7.2-3.3c-0.1-1.7,1.2-3.3,1.5-6.7c0.2-2.5-1.3-4.7-2.1-5.7
	c-0.3-0.4-0.5-0.6-0.5-0.6s0.2,0.2,0.5,0.6c1.3,1.5,5,5.6,7,7.5c1.3,1.3,3.1,0.8,3.8,0.1c0.7-0.8,0-1.8-1.5-2.1
	c-1.4-0.3-4.1-8.2-6.9-13.7c-2.7-5.5-2.7-7.6-2.7-7.6s1.2-4,2.3-4.8c1.1-0.7,2.9-0.7,8.2,0.4s5.6-7.6,5-8.7
	C562.2,249.2,561.2,249.5,559.6,249z"/>
<path class="st9" d="M547.4,278.7c-0.3-0.4-0.5-0.6-0.5-0.6S547.1,278.3,547.4,278.7z"/>
<path class="st9" d="M436.5,148.9c-0.7,0-1.3,0.3-1.8,0.8s-0.7,1.1-0.7,1.8c0,1.4,1.2,2.4,2.5,2.4c0,0,0,0,0.1,0
	c1.4,0,2.5-1.2,2.4-2.6l0,0c0-0.7-0.3-1.3-0.8-1.8C437.8,149.1,437.2,148.9,436.5,148.9z M436.6,152.8L436.6,152.8
	c-0.8,0-1.5-0.6-1.5-1.4c0-0.4,0.1-0.8,0.4-1c0.3-0.3,0.6-0.4,1-0.5l0,0c0.4,0,0.7,0.1,1,0.4s0.4,0.6,0.5,1
	C438,152.2,437.4,152.8,436.6,152.8z"/>
<path class="st15" d="M433.1,150.2l2.3,2.8l15.7,6.5c0,0-10.3-5.8-12.4-7S433.1,150.2,433.1,150.2z"/>
<path class="st14" d="M518.8,165.8l-2.9,3.1c0.8,4.6,0.8,8,2.7,10.3c1.5,1.8,1.8,0.7,0.7-1.3c-0.4-0.8,1.3-1.2,1.6-0.3
	c0.2,0.5,0.2,1.1,0.2,2.1c-0.3,3.9,0.7,3.3,1,3.3s3.1-5.9,2.7-7.7C524.4,173.5,520.4,170.2,518.8,165.8z"/>
<path class="st14" d="M469.7,61.6c-2.6,6.5-3.1,8.5-2.3,11.4c0.7,2.9,1.3,1.9,2.3,3.3c0.9,1.1,0.2,2.1,0.5,3.2
	c0.3,1,1.7,5.6,5.6,7.2c4,1.6-0.6-22-0.6-22L469.7,61.6z"/>
<path class="st9" d="M454.1,136.4c-0.1,0.1-11,8.2-17.1,13.6c-0.2,0.2-0.2,0.5,0,0.7c0.1,0.1,0.3,0.2,0.4,0.2s0.3,0,0.4-0.1
	c6.1-5.4,16.9-13.5,17.1-13.6c0.2-0.2,0.3-0.5,0.1-0.7C454.7,136.2,454.4,136.2,454.1,136.4z"/>
<path class="st6" d="M485.8,298c0,0,3.3-0.8,4.1-1.4c0.8-0.6,3.2-6,3.2-6l-3.1,0.1L485.8,298z"/>
<path class="st9" d="M491.3,297.1c0,0,3.6,0.9,4.3-0.2l0.6-9.2l-5,0.4L491.3,297.1z"/>
<path class="st0" d="M495.2,281.8l-6,0.1c0,0-4,10-6.1,10.9c-5.5,2.2-4.6,3.6-4.3,4.4c0.3,0.9,6.2,1.7,7.4,0.5
	c1.2-1.2,4.2-6.2,5.1-6.3c0.9-0.1,4.3-0.6,4.9-1.2c0.5-0.6,0.5-2.1,0.4-3.6C496.3,285,495.2,281.8,495.2,281.8z"/>
<path class="st9" d="M452.8,301.3c0,0,3.8,0.3,4.3-0.4l0.6-9.2l-5,0.5L452.8,301.3z"/>
<path class="st0" d="M456.9,285.9L449,286c0,0-4.8,10.2-7,10.9c-5.8,2-5.5,4.1-5.3,5c0.3,1.9,11.7,0.9,12.9-0.3c1.2-1.2,3-5.6,4.1-6
	c0.8-0.3,3.5-0.8,4.1-1.4c0.5-0.6,0.5-2.1,0.4-3.6S456.9,285.9,456.9,285.9z"/>
<path class="st5" d="M514.9,141.9c0,0-10.8-4.5-11-0.6s10.5,27.1,10.9,28.2c0.4,1,8.9-1.5,8.1-3.3
	C522.1,164.5,514.9,141.9,514.9,141.9z"/>
<path class="st12" d="M504.4,148.2c3.4,2.6,13.8-6.7,13.8-6.7c-7.3-10.8-16.4-32.9-16.4-32.9S501.8,146.2,504.4,148.2z"/>
<path class="st9" d="M512.3,148.3c0,0-1.9,1.2-3.5,1.6c-0.3,0.1-0.4,0.4-0.4,0.7c0.1,0.2,0.3,0.4,0.5,0.4h0.1
	c1.7-0.5,3.7-1.7,3.8-1.8c0.2-0.2,0.3-0.5,0.2-0.7S512.6,148.2,512.3,148.3z"/>
<path class="st5" d="M478.8,224.7c5.5,28.7,6.5,51.6,7.7,60.6c0.1,0.6,2.3,0.9,2.3,0.9l2-111.8l-17.8,1.3
	C473,175.8,472.9,194,478.8,224.7z"/>
<path class="st6" d="M482.9,219.7c0.6,8.4,6,66.5,6,66.5s7.5,0.2,7.3-1.7c-1.4-14.9,0.5-54.4,0.6-68c0-13.6,8.2-43.2,8.2-43.2
	l-19,1.4C485.9,174.9,482.3,211.3,482.9,219.7z"/>
<path class="st5" d="M445.4,215.2c0.7,13.9-0.1,55.8,1.6,73.8c0.1,0.8,4.1,1.4,4.1,1.4l0.2-75.3l18-48.8l-10.5-0.9
	C458.8,165.4,444.7,200.1,445.4,215.2z"/>
<path class="st6" d="M464,172.8c0,0-14,24.7-14.9,42.9c-0.4,8.2,2,74.7,2,74.7s7.7,0.1,7.6-1.8c-0.4-7,2.7-61.9,4.4-71.8
	c1.7-9.8,23.8-30.2,23.8-30.2l-2.3-7.7L464,172.8z"/>
<path class="st9" d="M462,212.8c-0.1,0-5.7,0.6-9.1-0.3c-0.3-0.1-0.6,0.1-0.7,0.4s0.1,0.6,0.4,0.7c1.6,0.4,3.7,0.6,5.5,0.6
	c2.2,0,3.9-0.2,4.1-0.2c0.3,0,0.5-0.3,0.5-0.6C462.5,213,462.2,212.8,462,212.8z"/>
<path class="st9" d="M459.5,216.4c-5.5-0.3-8-1.8-8-1.8c-0.3-0.2-0.6-0.1-0.7,0.2c-0.2,0.3-0.1,0.6,0.2,0.7c0.1,0.1,2.8,1.6,8.5,1.9
	l0,0c0.3,0,0.5-0.2,0.5-0.5C460,216.7,459.8,216.4,459.5,216.4z"/>
<path class="st9" d="M494.4,216.2c-4.1,1.1-9.2,0.3-9.3,0.2c-0.3,0-0.6,0.1-0.6,0.4c-0.1,0.3,0.1,0.6,0.4,0.6c0.1,0,2.1,0.4,4.5,0.4
	c1.6,0,3.5-0.1,5.2-0.6c0.3-0.1,0.4-0.4,0.4-0.7C494.9,216.3,494.7,216.1,494.4,216.2z"/>
<path class="st9" d="M494.1,218.7c-6.2,1.1-9.6-0.6-9.6-0.7c-0.3-0.1-0.6,0-0.7,0.2c-0.1,0.3,0,0.6,0.2,0.7c0.1,0.1,2.2,1.1,6.1,1.1
	c1.2,0,2.6-0.1,4.2-0.4c0.3-0.1,0.5-0.3,0.4-0.6C494.7,218.9,494.4,218.7,494.1,218.7z"/>
<path class="st12" d="M470.6,87.8c-1.8-0.4-3.8,12-3.8,14.1c-0.3,27.8-21.9,79.8-21.9,79.8s52.4,9.4,63.2,14.5
	c0,0,1.9-71.7-5.3-96.3C502.8,99.9,488.3,91.8,470.6,87.8z"/>
<path class="st9" d="M499.8,88.5c-0.9-4.1,4.6-7.2,2.9-12.4c-0.6-1.8-1.4-1.8-2.6-4.6c-1.7-4-1.8-4.1-3.3-8.4
	c-1-2.6-9.1-15.4-21.8-9c-24.1,12.1-1.7,20.5-1.3,24.6c1.4,16.2,8,7.1,9.2,12.5c0.7,2.9-2,3.7-1.1,8.2c0.6,3.1,3.2,4.1,3.7,7.7
	c0.5,3.1-2.4,4.5-2.1,6.6c1,5.9,28.1,12.4,34.7,1.5c2.6-4.4,1.8-11.4-1.5-15.9C511.6,92.6,501,93.9,499.8,88.5z"/>
<path class="st16" d="M477.8,125c-0.3-0.1-0.6,0-0.7,0.3c-3,6.7-12,14-16.3,17.5c-1.3,1-1.9,1.6-2.2,1.9c-0.2,0.2-0.2,0.6,0,0.7
	c0.1,0.1,0.2,0.1,0.3,0.1c0.1,0,0.3-0.1,0.4-0.2c0.2-0.2,1-0.9,2.1-1.7c4.4-3.5,13.6-10.9,16.7-17.9
	C478.2,125.4,478,125.1,477.8,125z"/>
<path class="st9" d="M482.3,99.4c-0.3,0.1-0.5,0.3-0.4,0.6c3,14.3-8.6,41-16.2,58.7l-0.6,1.5c-0.1,0.3,0,0.6,0.3,0.7
	c0.1,0,0.1,0,0.2,0c0.2,0,0.4-0.1,0.5-0.3l0.6-1.5c7.7-17.8,19.3-44.8,16.3-59.4C482.9,99.5,482.6,99.3,482.3,99.4z"/>
<path class="st14" d="M472.4,73.1c-0.4,0.3-0.6,0.8-0.5,1.3l1.6,6.1c-0.7,0.9,2.9-0.1,1.1-6.2C474.5,73.7,473.4,72.5,472.4,73.1z"/>
<path class="st9" d="M541.8,253.3c0,0-1,0.6-2.5,0.2c-1.8-0.5-4.6-2.5-7.6-9.2c-2.5-5.4-3-17.1-3.6-29.5
	c-0.8-16.8-1.6-34.1-7.4-37.7c-0.3-0.2-0.6-0.1-0.8,0.2c-0.2,0.3-0.1,0.6,0.2,0.8c5.3,3.3,6.2,21.1,6.9,36.8
	c0.6,12.5,1.1,24.3,3.7,29.9c2.6,5.7,5.4,9,8.4,9.8c0.5,0.1,0.9,0.2,1.3,0.2c1.3,0,2-0.5,2.1-0.6c0.3-0.2,0.3-0.5,0.1-0.8
	C542.4,253.2,542,253.2,541.8,253.3z"/>
<path class="st17" d="M460.2,160.6c0,0-5,19.8-2.7,19c2.2-0.8,11.1-16.9,11.1-16.9s-1.9-1-3.7-1.4
	C463.1,160.9,460.2,160.6,460.2,160.6z"/>
<path class="st0" d="M433.1,150.2c0,0-4.4,15.1-2.5,19.8c3,7.5,21,13.9,26.8,9.8c3.9-2.8,2.9-19.2,2.9-19.2
	C452.9,158.8,435.6,152.4,433.1,150.2z"/>
<g>
	<path class="st2" d="M436.1,154.6c-1.2-0.5-1.9-0.9-1.9-0.9c-0.3-0.1-0.6,0-0.7,0.2c-0.1,0.3,0,0.6,0.2,0.7c0,0,0.7,0.3,1.9,0.9
		c0.1,0,0.1,0,0.2,0c0.2,0,0.4-0.1,0.5-0.3C436.5,155,436.4,154.7,436.1,154.6z"/>
	<path class="st2" d="M443.9,157.7c-1.4-0.5-2.7-1-3.9-1.5c-0.3-0.1-0.6,0-0.7,0.3s0,0.6,0.3,0.7c1.2,0.5,2.5,1,3.9,1.5
		c0.1,0,0.1,0,0.2,0c0.2,0,0.4-0.1,0.5-0.3C444.3,158.1,444.1,157.8,443.9,157.7z"/>
	<path class="st2" d="M451.8,160.4c-1.3-0.4-2.6-0.8-4-1.3c-0.3-0.1-0.6,0.1-0.7,0.3c-0.1,0.3,0.1,0.6,0.3,0.7
		c1.4,0.5,2.7,0.9,4,1.3h0.1c0.2,0,0.4-0.2,0.5-0.4C452.3,160.8,452.1,160.5,451.8,160.4z"/>
	<path class="st2" d="M457.9,161.9c-0.7-0.1-1.4-0.3-2-0.5c-0.3-0.1-0.6,0.1-0.6,0.4c-0.1,0.3,0.1,0.6,0.4,0.6
		c0.7,0.2,1.4,0.3,2.1,0.5h0.1c0.2,0,0.5-0.2,0.5-0.4C458.4,162.2,458.2,162,457.9,161.9z"/>
</g>
<path class="st9" d="M465.1,158.7c-1.4,0-2.5,1.2-2.4,2.6c0,1.4,1.2,2.4,2.5,2.4c0,0,0,0,0.1,0c0.7,0,1.3-0.3,1.8-0.8
	s0.7-1.1,0.7-1.8C467.6,159.8,466.5,158.7,465.1,158.7z M466.2,162.2c-0.3,0.3-0.6,0.4-1,0.5l0,0c-0.8,0-1.4-0.6-1.4-1.4
	s0.6-1.5,1.4-1.5l0,0c0.8,0,1.4,0.6,1.4,1.4C466.6,161.6,466.5,161.9,466.2,162.2z"/>
<path class="st5" d="M437.6,109.1c0,0-5.8,2.8-4.9,5l20.7,25.8l4-10.3C457.3,129.6,440.3,111.7,437.6,109.1z"/>
<path class="st12" d="M473.8,102.4c-8.6,9.9-15.9,23.6-20.1,22.3c-2.1-0.7-1.1,20.5,0.3,20.4c7.1-0.5,25.1-19.3,28-34.3
	C483.6,101.8,475.7,100.2,473.8,102.4z"/>
<path class="st0" d="M504.7,84.5c-3.4,1.8-20.3,4.9-24.8,5.8c-4.6,0.9-17.5,3.4-20.1,4.9s-2.6,2.5-2.6,3.5c0,1.7,2.2,3,3.5,5.1
	c2,3.2,3.9,7.4,5.4,6.5c1.7-1,10.9-11.5,19.9-13.6s23.9-0.5,26.9-2c2-1.1-2.6-5.1-2.7-5.9C509.9,85.6,508,82.6,504.7,84.5z"/>
<path class="st0" d="M542.8,251.1l-2.1,2.3c0.2,2.4,4.4,5.7,7.3,7.2l1.5-2.3C549.4,258.2,543.9,255,542.8,251.1z"/>
<path class="st2" d="M545.1,276.4c-2.8-1-5.5,0.4-7.1,1.3l-0.4,0.2c-0.3,0.1-0.4,0.5-0.2,0.7c0.1,0.3,0.5,0.4,0.7,0.2l0.4-0.2
	c1.5-0.8,3.9-2.1,6.2-1.2c1.8,0.7,3.4,2.5,4.7,5.6c0.1,0.2,0.3,0.3,0.5,0.3c0.1,0,0.1,0,0.2,0c0.3-0.1,0.4-0.4,0.3-0.7
	C549,279.2,547.2,277.1,545.1,276.4z"/>
<path class="st0" d="M561.2,249.3c-0.8,0.5,0.8,2.1,1.6,2.4c0,0,0.1-1.6-0.1-1.9C562.4,249.5,561.4,249.2,561.2,249.3z"/>
<path class="st16" d="M455.2,125.8c-0.1-0.3-0.4-0.4-0.7-0.4c-0.3,0.1-0.4,0.4-0.4,0.7l2.4,8.1c0.1,0.2,0.3,0.4,0.5,0.4
	c0,0,0.1,0,0.2,0c0.3-0.1,0.4-0.4,0.4-0.7L455.2,125.8z"/>
<path class="st16" d="M457.1,125.4c-0.2-0.2-0.5-0.3-0.7-0.1s-0.3,0.5-0.1,0.7l2.4,3.5c0.1,0.2,0.3,0.2,0.4,0.2s0.2,0,0.3-0.1
	c0.2-0.2,0.3-0.5,0.1-0.7L457.1,125.4z"/>
<path class="st16" d="M508.1,129.2c-0.3,0-0.5,0.3-0.5,0.5c0.4,8.7,0.3,14.1,0.3,14.2c0,0.3,0.2,0.5,0.5,0.5l0,0
	c0.3,0,0.5-0.2,0.5-0.5c0-0.1,0.2-5.5-0.3-14.3C508.6,129.4,508.4,129.2,508.1,129.2z"/>
<ellipse class="st6" cx="436.3" cy="107.4" rx="0.5" ry="0.3"/>
<path class="st17" d="M506.1,89.8c-2.6,1.2-6.6,1.5-11.6,1.9c-2,0.2-4.3,0.4-6.8,0.7c-6.3,0.7-12.7,4-17.4,6.4
	c-1.8,0.9-3.4,1.7-4.7,2.3c-0.3,0.1-0.4,0.4-0.3,0.7c0.1,0.2,0.3,0.3,0.5,0.3c0.1,0,0.1,0,0.2,0c1.3-0.5,2.9-1.4,4.8-2.3
	c4.6-2.3,10.9-5.6,17-6.2c2.5-0.3,4.8-0.5,6.8-0.7c5.1-0.4,9.1-0.8,11.9-2c0.3-0.1,0.4-0.4,0.3-0.7
	C506.7,89.8,506.4,89.7,506.1,89.8z"/>
<path class="st17" d="M507.4,85.6c-4.1,2.4-16,4.6-16.1,4.6c-0.3,0.1-0.5,0.3-0.4,0.6c0,0.3,0.3,0.4,0.5,0.4h0.1
	c0.5-0.1,12.1-2.2,16.4-4.7c0.3-0.1,0.3-0.5,0.2-0.7C507.9,85.5,507.6,85.5,507.4,85.6z"/>
<g>
	<g>
		<path class="st3" d="M245.8,137.1c-19-0.1-19,33-18.9,46.4c0,9.7-19,44-4.4,65.2c14.5,21.2,29.7,5.5,37.9-14.2s-14-36.4-15.5-50.7
			C243.3,169.5,268.7,137.2,245.8,137.1z"/>
		<path class="st4" d="M248.1,144c-4,0-11.5,26.2-13,54s6.8,55.5,6.8,55.5s12.5-7.6,15.4-20.8c2.8-13.2-16.2-43.1-16.6-47.8
			C240.3,180,257.8,144,248.1,144z"/>
		<path class="st2" d="M244.1,143c-0.3-0.1-0.6,0-0.7,0.3c-22.8,54.8-4.7,111.2-4.5,111.8c0.1,0.2,0.3,0.4,0.5,0.4
			c0.1,0,0.1,0,0.2,0c0.3-0.1,0.4-0.4,0.3-0.7c-0.2-0.6-18.1-56.6,4.5-111C244.5,143.4,244.3,143.1,244.1,143z"/>
		<path class="st2" d="M249.2,154.1c-4.9,3-9.6,9.7-10.1,10.5c-0.2,0.2-0.1,0.6,0.1,0.7c0.1,0.1,0.2,0.1,0.3,0.1
			c0.2,0,0.3-0.1,0.4-0.2c0.5-0.7,5-7.3,9.8-10.1c0.3-0.2,0.3-0.5,0.2-0.7C249.8,154,249.5,154,249.2,154.1z"/>
	</g>
	<g>
		<path class="st3" d="M221.4,191.9c-11.1-9.2,14.8-27.5-3.6-39.8c-9-6.1-13.1-14.4-24-31c-11.4-17.4-22.4-17.9-28.9-9.9
			c-9.5,11.7,11,25,2,51.3c-7.9,23,24.6,33.8,18.3,51.7c-11.1,31.4,14.7,50.3,30.3,51.7C235.6,267.7,272.7,234.3,221.4,191.9z"/>
		<path class="st4" d="M215.9,195.9c-10-8.7,6.1-26.1-4-36.5s-28.5-49.6-37.3-50c-14.7-0.7,19.4,23.2,25.3,99.4
			c3.6,45.9,22.3,61.3,30.7,49.1C248.1,232.7,238,215.1,215.9,195.9z"/>
		<path class="st2" d="M217.6,262.3c-13.1-6.7-19.1-23.9-20.7-59.3c-1.5-34.7-22.6-79.5-25-84.5c-0.1-0.3-0.4-0.4-0.7-0.2
			c-0.3,0.1-0.4,0.4-0.2,0.7c2.4,5,23.4,49.6,24.9,84.1c1.6,35.9,7.7,53.4,21.2,60.2c0.1,0,0.2,0.1,0.2,0.1c0.2,0,0.4-0.1,0.5-0.3
			C218,262.8,217.9,262.5,217.6,262.3z"/>
		<path class="st2" d="M172.6,147.9c-0.2-0.2-0.6-0.2-0.7,0.1c-0.2,0.2-0.2,0.6,0.1,0.7c0.1,0.1,7.2,5.9,11.3,9.6
			c0.1,0.1,0.2,0.1,0.4,0.1c0.1,0,0.3-0.1,0.4-0.2c0.2-0.2,0.2-0.6,0-0.7C179.9,153.8,172.7,147.9,172.6,147.9z"/>
		<path class="st2" d="M171,171.5c-0.3-0.1-0.6-0.1-0.7,0.2c-0.1,0.3-0.1,0.6,0.2,0.7c11.8,6.9,20.7,17.4,20.8,17.5s0.3,0.2,0.4,0.2
			c0.1,0,0.2,0,0.3-0.1c0.2-0.2,0.3-0.5,0.1-0.7C192,189.1,183,178.5,171,171.5z"/>
		<path class="st2" d="M186.5,220.9c-0.2-0.2-0.6-0.2-0.7,0c-0.2,0.2-0.2,0.6,0,0.7c4.2,3.8,11.9,14.1,11.9,14.2
			c0.1,0.1,0.3,0.2,0.4,0.2c0.1,0,0.2,0,0.3-0.1c0.2-0.2,0.3-0.5,0.1-0.7C198.2,234.9,190.7,224.8,186.5,220.9z"/>
		<path class="st2" d="M210.4,164.5c-5.4,5.9-10.9,17.8-11.2,18.3c-0.1,0.3,0,0.6,0.3,0.7c0.1,0,0.1,0,0.2,0c0.2,0,0.4-0.1,0.5-0.3
			c0.1-0.1,5.7-12.2,11-18c0.2-0.2,0.2-0.6,0-0.7C210.9,164.3,210.6,164.3,210.4,164.5z"/>
		<path class="st2" d="M222.8,214.5c-11.1,16-8.6,39.2-8.6,39.4c0,0.3,0.3,0.5,0.5,0.5c0,0,0,0,0.1,0c0.3,0,0.5-0.3,0.5-0.6
			c0-0.2-2.4-23.1,8.4-38.7c0.2-0.2,0.1-0.6-0.1-0.7C223.3,214.2,223,214.2,222.8,214.5z"/>
	</g>
</g>
</svg>
